<svg xmlns="http://www.w3.org/2000/svg" version="1.1" xmlns:xlink="http://www.w3.org/1999/xlink" width="512" height="512" x="0" y="0" viewBox="0 0 24 24" style="enable-background:new 0 0 512 512" xml:space="preserve" class=""><g transform="matrix(-0.5899999999999997,0,0,-0.5899999999999997,19.07999999999999,19.07999999999999)"><g fill="#000"><path d="M2 5a1 1 0 0 1 1-1h13a1 1 0 1 1 0 2H3a1 1 0 0 1-1-1zM2 12a1 1 0 0 1 1-1h18a1 1 0 1 1 0 2H3a1 1 0 0 1-1-1zM3 18a1 1 0 1 0 0 2h8a1 1 0 1 0 0-2z" fill="#224093" opacity="1" data-original="#000000" class=""></path></g></g></svg>